<mxfile host="embed.diagrams.net" agent="Mozilla/5.0 (Windows NT 10.0; Win64; x64) AppleWebKit/537.36 (KHTML, like Gecko) Chrome/134.0.0.0 Safari/537.36 Edg/134.0.0.0" version="26.1.1" pages="2">
  <diagram id="sI3mekAA7qW8wk7ORmRr" name="Page-1">
    <mxGraphModel grid="1" page="1" gridSize="10" guides="1" tooltips="1" connect="1" arrows="1" fold="1" pageScale="1" pageWidth="850" pageHeight="1100" math="0" shadow="0">
      <root>
        <mxCell id="0" />
        <mxCell id="1" parent="0" />
        <mxCell id="jmQq4r3ZLo154ISU2DBE-2" value="Captain Defend" style="text;html=1;align=center;verticalAlign=middle;whiteSpace=wrap;rounded=0;fontSize=22;" vertex="1" parent="1">
          <mxGeometry x="30" y="10" width="160" height="40" as="geometry" />
        </mxCell>
        <mxCell id="XmWzAr77eU4L6l4l3J8z-6" value="Items" style="shape=umlFrame;whiteSpace=wrap;html=1;pointerEvents=0;" vertex="1" parent="1">
          <mxGeometry x="120" y="80" width="640" height="390" as="geometry" />
        </mxCell>
        <mxCell id="XmWzAr77eU4L6l4l3J8z-7" value="Player" style="shape=umlFrame;whiteSpace=wrap;html=1;pointerEvents=0;" vertex="1" parent="1">
          <mxGeometry x="120" y="600" width="650" height="390" as="geometry" />
        </mxCell>
        <mxCell id="XmWzAr77eU4L6l4l3J8z-8" value="Base" style="shape=umlFrame;whiteSpace=wrap;html=1;pointerEvents=0;" vertex="1" parent="1">
          <mxGeometry x="850" y="80" width="650" height="390" as="geometry" />
        </mxCell>
        <mxCell id="XmWzAr77eU4L6l4l3J8z-9" value="Enemies" style="shape=umlFrame;whiteSpace=wrap;html=1;pointerEvents=0;" vertex="1" parent="1">
          <mxGeometry x="850" y="600" width="650" height="390" as="geometry" />
        </mxCell>
        <mxCell id="XmWzAr77eU4L6l4l3J8z-10" value="Resources" style="shape=umlFrame;whiteSpace=wrap;html=1;pointerEvents=0;" vertex="1" parent="1">
          <mxGeometry x="1580" y="80" width="650" height="390" as="geometry" />
        </mxCell>
      </root>
    </mxGraphModel>
  </diagram>
  <diagram id="79Y9GNSpRrBEl-m97PtI" name="Assets">
    <mxGraphModel grid="1" page="1" gridSize="10" guides="1" tooltips="1" connect="1" arrows="1" fold="1" pageScale="1" pageWidth="850" pageHeight="1100" math="0" shadow="0">
      <root>
        <mxCell id="0" />
        <mxCell id="1" parent="0" />
        <mxCell id="WoKA8CaXOL4bAOKRxk4p-1" value="&lt;a href=&quot;https://assetstore.unity.com/packages/2d/environments/pixel-art-top-down-basic-187605&quot;&gt;Pixel Art Top Down - Basic | 2D Environments | Unity Asset Store&lt;/a&gt;" style="text;html=1;align=center;verticalAlign=middle;resizable=0;points=[];autosize=1;strokeColor=none;fillColor=none;" vertex="1" parent="1">
          <mxGeometry x="300" y="130" width="370" height="30" as="geometry" />
        </mxCell>
      </root>
    </mxGraphModel>
  </diagram>
</mxfile>
